<svg width="29" height="19" viewBox="0 0 29 19" fill="none" xmlns="http://www.w3.org/2000/svg">
<path d="M11.0742 13.6875C11.0742 13.2891 11.0117 12.9375 10.8867 12.6328C10.7695 12.3203 10.5586 12.0391 10.2539 11.7891C9.95703 11.5391 9.54297 11.3008 9.01172 11.0742C8.48828 10.8477 7.82422 10.6172 7.01953 10.3828C6.17578 10.1328 5.41406 9.85547 4.73438 9.55078C4.05469 9.23828 3.47266 8.88281 2.98828 8.48438C2.50391 8.08594 2.13281 7.62891 1.875 7.11328C1.61719 6.59766 1.48828 6.00781 1.48828 5.34375C1.48828 4.67969 1.625 4.06641 1.89844 3.50391C2.17188 2.94141 2.5625 2.45312 3.07031 2.03906C3.58594 1.61719 4.19922 1.28906 4.91016 1.05469C5.62109 0.820312 6.41406 0.703125 7.28906 0.703125C8.57031 0.703125 9.65625 0.949219 10.5469 1.44141C11.4453 1.92578 12.1289 2.5625 12.5977 3.35156C13.0664 4.13281 13.3008 4.96875 13.3008 5.85938H11.0508C11.0508 5.21875 10.9141 4.65234 10.6406 4.16016C10.3672 3.66016 9.95312 3.26953 9.39844 2.98828C8.84375 2.69922 8.14062 2.55469 7.28906 2.55469C6.48438 2.55469 5.82031 2.67578 5.29688 2.91797C4.77344 3.16016 4.38281 3.48828 4.125 3.90234C3.875 4.31641 3.75 4.78906 3.75 5.32031C3.75 5.67969 3.82422 6.00781 3.97266 6.30469C4.12891 6.59375 4.36719 6.86328 4.6875 7.11328C5.01562 7.36328 5.42969 7.59375 5.92969 7.80469C6.4375 8.01562 7.04297 8.21875 7.74609 8.41406C8.71484 8.6875 9.55078 8.99219 10.2539 9.32812C10.957 9.66406 11.5352 10.043 11.9883 10.4648C12.4492 10.8789 12.7891 11.3516 13.0078 11.8828C13.2344 12.4062 13.3477 13 13.3477 13.6641C13.3477 14.3594 13.207 14.9883 12.9258 15.5508C12.6445 16.1133 12.2422 16.5938 11.7188 16.9922C11.1953 17.3906 10.5664 17.6992 9.83203 17.918C9.10547 18.1289 8.29297 18.2344 7.39453 18.2344C6.60547 18.2344 5.82812 18.125 5.0625 17.9062C4.30469 17.6875 3.61328 17.3594 2.98828 16.9219C2.37109 16.4844 1.875 15.9453 1.5 15.3047C1.13281 14.6562 0.949219 13.9062 0.949219 13.0547H3.19922C3.19922 13.6406 3.3125 14.1445 3.53906 14.5664C3.76562 14.9805 4.07422 15.3242 4.46484 15.5977C4.86328 15.8711 5.3125 16.0742 5.8125 16.207C6.32031 16.332 6.84766 16.3945 7.39453 16.3945C8.18359 16.3945 8.85156 16.2852 9.39844 16.0664C9.94531 15.8477 10.3594 15.5352 10.6406 15.1289C10.9297 14.7227 11.0742 14.2422 11.0742 13.6875ZM28.8398 9.50391V15.75C28.6289 16.0625 28.293 16.4141 27.832 16.8047C27.3711 17.1875 26.7344 17.5234 25.9219 17.8125C25.1172 18.0938 24.0781 18.2344 22.8047 18.2344C21.7656 18.2344 20.8086 18.0547 19.9336 17.6953C19.0664 17.3281 18.3125 16.7969 17.6719 16.1016C17.0391 15.3984 16.5469 14.5469 16.1953 13.5469C15.8516 12.5391 15.6797 11.3984 15.6797 10.125V8.80078C15.6797 7.52734 15.8281 6.39062 16.125 5.39062C16.4297 4.39062 16.875 3.54297 17.4609 2.84766C18.0469 2.14453 18.7656 1.61328 19.6172 1.25391C20.4688 0.886719 21.4453 0.703125 22.5469 0.703125C23.8516 0.703125 24.9414 0.929687 25.8164 1.38281C26.6992 1.82812 27.3867 2.44531 27.8789 3.23438C28.3789 4.02344 28.6992 4.92188 28.8398 5.92969H26.5781C26.4766 5.3125 26.2734 4.75 25.9688 4.24219C25.6719 3.73438 25.2461 3.32812 24.6914 3.02344C24.1367 2.71094 23.4219 2.55469 22.5469 2.55469C21.7578 2.55469 21.0742 2.69922 20.4961 2.98828C19.918 3.27734 19.4414 3.69141 19.0664 4.23047C18.6914 4.76953 18.4102 5.42188 18.2227 6.1875C18.043 6.95312 17.9531 7.81641 17.9531 8.77734V10.125C17.9531 11.1094 18.0664 11.9883 18.293 12.7617C18.5273 13.5352 18.8594 14.1953 19.2891 14.7422C19.7188 15.2812 20.2305 15.6914 20.8242 15.9727C21.4258 16.2539 22.0898 16.3945 22.8164 16.3945C23.6211 16.3945 24.2734 16.3281 24.7734 16.1953C25.2734 16.0547 25.6641 15.8906 25.9453 15.7031C26.2266 15.5078 26.4414 15.3242 26.5898 15.1523V11.332H22.6406V9.50391H28.8398Z" fill="black"/>
</svg>
